<svg xmlns="http://www.w3.org/2000/svg" version="1.1" xmlns:xlink="http://www.w3.org/1999/xlink" xmlns:svgjs="http://svgjs.com/svgjs" width="1532" height="1532"><svg width="1532" height="1532" fill="none" xmlns="http://www.w3.org/2000/svg"><path d="M534.291 949.985H178.943L105.39 1117.26H7l302.81-669.113h94.569l303.766 669.113h-100.3l-73.554-167.275Zm-33.433-76.47L356.617 545.647 212.376 873.515h288.482ZM1267.47 408v709.26h-87.88v-80.29c-20.38 28.04-46.17 49.39-77.37 64.04-31.21 14.66-65.6 21.99-103.168 21.99-49.036 0-92.977-10.83-131.823-32.5-38.846-21.67-69.414-51.94-91.703-90.809-21.652-39.51-32.478-84.755-32.478-135.735 0-50.98 10.826-95.907 32.478-134.78 22.289-38.872 52.857-69.142 91.703-90.808 38.846-21.667 82.787-32.5 131.823-32.5 36.298 0 69.728 7.009 100.298 21.029 30.57 13.382 56.04 33.456 76.42 60.221V408h91.7Zm-260.78 634.71c31.85 0 60.82-7.33 86.93-21.99 26.11-15.29 46.49-36.323 61.14-63.088 14.64-27.402 21.97-58.627 21.97-93.676s-7.33-65.956-21.97-92.721c-14.65-27.402-35.03-48.431-61.14-63.088-26.11-14.657-55.08-21.985-86.93-21.985-32.474 0-61.768 7.328-87.878 21.985-25.473 14.657-45.851 35.686-61.135 63.088-14.647 26.765-21.971 57.672-21.971 92.721 0 35.049 7.324 66.274 21.971 93.676 15.284 26.765 35.662 47.798 61.135 63.088 26.11 14.66 55.404 21.99 87.878 21.99ZM1462.95 1123c-17.83 0-33.11-6.05-45.85-18.16-12.73-12.75-19.1-28.68-19.1-47.8 0-18.48 6.37-33.77 19.1-45.88 12.74-12.743 28.02-19.116 45.85-19.116 17.84 0 32.8 6.054 44.9 18.166 12.1 12.1 18.15 27.72 18.15 46.83 0 19.12-6.37 35.05-19.1 47.8-12.1 12.11-26.75 18.16-43.95 18.16Z" fill="#000"></path></svg><style>@media (prefers-color-scheme: light) { :root { filter: none; } }
@media (prefers-color-scheme: dark) { :root { filter: invert(100%); } }
</style></svg>