<?xml version="1.0" standalone="no"?>
<!DOCTYPE svg PUBLIC "-//W3C//DTD SVG 20010904//EN"
 "http://www.w3.org/TR/2001/REC-SVG-20010904/DTD/svg10.dtd">
<svg version="1.0" xmlns="http://www.w3.org/2000/svg"
 width="700.000000pt" height="700.000000pt" viewBox="0 0 700.000000 700.000000"
 preserveAspectRatio="xMidYMid meet">
<metadata>
Created by potrace 1.14, written by Peter Selinger 2001-2017
</metadata>
<g transform="translate(0.000000,700.000000) scale(0.100000,-0.100000)"
fill="#000000" stroke="none">
<path d="M5375 5130 c-2 -4 -4 -283 -4 -621 0 -338 -1 -619 -1 -626 0 -6 -34
22 -75 63 -123 123 -260 199 -450 252 -76 21 -116 25 -255 28 -112 2 -192 -2
-248 -12 -471 -83 -824 -417 -916 -864 -41 -206 -41 -408 3 -606 99 -454 449
-780 921 -859 129 -21 372 -14 480 14 239 62 409 168 538 335 l22 29 0 -182
c0 -99 3 -182 8 -182 4 -1 94 -2 200 -3 l192 -1 0 1620 0 1621 -206 0 c-113 0
-207 -3 -209 -6z m-620 -1279 c308 -61 522 -269 597 -579 29 -122 29 -321 -1
-446 -41 -169 -135 -322 -263 -425 -201 -163 -495 -209 -762 -120 -221 75
-403 268 -469 499 -27 93 -29 111 -33 245 -4 149 12 248 57 365 73 189 223
341 409 416 133 54 324 72 465 45z"/>
<path d="M1444 4952 c-26 -3 -34 -11 -56 -60 -15 -31 -90 -199 -168 -372 -79
-173 -156 -344 -172 -380 -17 -36 -49 -108 -73 -160 -24 -52 -54 -120 -68
-150 -13 -30 -89 -197 -167 -370 -78 -173 -159 -352 -181 -398 -21 -46 -39
-85 -39 -87 0 -2 -20 -48 -45 -101 -25 -53 -45 -98 -45 -100 0 -2 -20 -47 -45
-100 -25 -53 -45 -98 -45 -100 0 -2 -23 -52 -50 -110 -28 -58 -50 -107 -50
-109 0 -2 -17 -41 -39 -87 -21 -45 -49 -105 -61 -133 -13 -27 -36 -79 -52
-115 -33 -72 -50 -113 -49 -120 1 -6 430 -7 440 0 6 4 66 139 273 610 l64 145
814 0 814 0 158 -360 c88 -198 162 -368 165 -377 3 -10 8 -19 12 -19 26 -5
451 -3 451 2 0 4 -93 211 -206 460 -523 1154 -737 1624 -768 1691 -18 40 -42
93 -54 118 -11 25 -86 191 -167 370 -184 405 -179 393 -177 403 1 4 -8 7 -20
8 -95 2 -369 3 -394 1z m217 -519 c17 -38 38 -86 48 -108 10 -22 49 -110 86
-195 37 -85 75 -173 85 -195 10 -22 37 -83 60 -135 23 -52 50 -113 59 -135 10
-22 39 -87 64 -145 26 -58 86 -195 135 -305 l88 -200 -328 -3 c-180 -1 -476
-1 -657 0 l-328 3 99 225 c55 124 179 405 275 625 97 220 188 427 203 460 14
33 37 86 51 117 13 32 25 58 27 58 2 0 17 -30 33 -67z"/>
<path d="M6610 2456 c-60 -16 -112 -48 -153 -97 -51 -59 -66 -107 -64 -202 2
-70 7 -90 32 -136 105 -190 375 -203 494 -24 38 57 54 111 52 182 -1 74 -17
121 -60 177 -67 89 -189 129 -301 100z"/>
</g>
</svg>
